<?xml version="1.0" encoding="utf-8"?>
<!-- Generator: Adobe Illustrator 26.0.1, SVG Export Plug-In . SVG Version: 6.00 Build 0)  -->
<svg version="1.1" id="katman_1" xmlns="http://www.w3.org/2000/svg" xmlns:xlink="http://www.w3.org/1999/xlink" x="0px" y="0px"
	 viewBox="0 0 784.5 336.6" enable-background="new 0 0 784.5 336.6" xml:space="preserve">
<g>
	<path fill="#004A98" d="M4.8,290.5c2.3-3.1,5.1-5.5,8.5-7.2c3.4-1.7,7-2.6,10.8-2.6c4.5,0,8.2,1.1,11.1,3.4c3,2.3,4.8,5.4,5.4,9.5
		h-9.2c-0.6-1.8-1.7-3.2-3.1-4.1c-1.5-0.9-3.3-1.4-5.5-1.4c-2.3,0-4.5,0.5-6.5,1.6c-2,1.1-3.7,2.6-5,4.6c-1.4,2-2.3,4.3-2.7,6.9
		c-0.2,1.2-0.3,2.2-0.3,3c0,3.1,0.9,5.5,2.7,7.3c1.8,1.8,4.2,2.7,7.2,2.7c2.2,0,4.2-0.5,6-1.4c1.8-1,3.4-2.3,4.6-4.2H38
		c-2.1,4.1-5,7.2-8.7,9.5c-3.7,2.3-7.8,3.4-12.3,3.4c-3.3,0-6.3-0.7-8.9-2s-4.6-3.3-6-5.7c-1.4-2.5-2.1-5.3-2.1-8.5
		c0-1.3,0.1-2.7,0.3-4.1C1,297.1,2.5,293.6,4.8,290.5z"/>
	<path fill="#004A98" d="M71.6,292.2c2.4,2.2,3.5,5.2,3.5,9c0,1.2-0.1,2.3-0.3,3.3c-0.2,1.1-0.5,2.1-0.7,3H51c0,0.3-0.1,0.6-0.1,1.1
		c0,2,0.6,3.5,1.7,4.7c1.2,1.1,2.7,1.7,4.6,1.7c1.6,0,3-0.4,4.1-1.1c1.2-0.7,2.1-1.6,2.8-2.8h8.6c-1.4,3-3.6,5.5-6.5,7.5
		c-3,2-6.3,2.9-10,2.9c-4,0-7.3-1.1-9.7-3.4c-2.4-2.3-3.7-5.4-3.7-9.3c0-1.1,0.1-2.3,0.3-3.6c0.6-3.3,1.7-6.1,3.5-8.6
		c1.8-2.5,4-4.4,6.6-5.7c2.6-1.3,5.5-2,8.6-2C66.1,288.9,69.3,290,71.6,292.2z M67.1,301.3c0-1.8-0.6-3.3-1.8-4.3
		c-1.2-1-2.7-1.5-4.6-1.5c-2,0-3.8,0.6-5.4,1.9c-1.6,1.3-2.7,3-3.4,5.2H67C67,302,67.1,301.5,67.1,301.3z"/>
	<path fill="#004A98" d="M108.7,291.6c1.9,1.8,2.8,4.3,2.8,7.6c0,1.2-0.1,2.3-0.3,3.3l-3.3,18.6H100l3.1-17.5c0.1-0.7,0.2-1.4,0.2-2
		c0-1.9-0.5-3.3-1.5-4.3c-1-1-2.4-1.5-4.3-1.5c-2.1,0-3.9,0.6-5.5,1.9c-1.5,1.3-2.5,3.1-3,5.5L85.8,321h-8l5.6-31.6h8.1l-0.7,3.9
		c1.3-1.3,2.8-2.4,4.6-3.2c1.8-0.8,3.7-1.2,5.6-1.2C104.2,288.9,106.8,289.8,108.7,291.6z"/>
	<path fill="#004A98" d="M126.6,311.3c0,0.2-0.1,0.5-0.1,0.9c0,0.8,0.2,1.3,0.7,1.6c0.4,0.3,1.2,0.5,2.2,0.5h3.8l-1.2,6.7h-5.1
		c-5.7,0-8.6-2.4-8.6-7.1c0-0.9,0.1-1.8,0.2-2.7l2.7-15.2h-3.8l1.1-6.6h3.8l1.4-7.8h8l-1.4,7.8h7l-1.1,6.6h-7.1L126.6,311.3z"/>
	<path fill="#004A98" d="M155.1,290.5c1.8-1.1,3.8-1.6,5.9-1.6l-1.5,8.4h-2.1c-2.4,0-4.3,0.5-5.7,1.5c-1.4,1-2.5,2.8-3.1,5.3
		l-3,16.9h-8l5.6-31.6h8.1l-1,5.6C151.7,293.1,153.3,291.6,155.1,290.5z"/>
	<path fill="#004A98" d="M164.9,296.6c1.7-2.5,3.8-4.4,6.2-5.7c2.4-1.3,5-2,7.7-2c2.4,0,4.3,0.5,6,1.4c1.6,1,2.8,2.2,3.6,3.6
		l0.8-4.5h8.1l-5.6,31.6h-8.1l0.9-4.6c-1.3,1.5-2.9,2.7-4.9,3.7c-2,1-4.2,1.5-6.5,1.5c-2.3,0-4.4-0.5-6.2-1.6
		c-1.8-1-3.2-2.5-4.2-4.5c-1-1.9-1.5-4.2-1.5-6.7c0-1.2,0.1-2.4,0.3-3.7C162.1,301.9,163.2,299.1,164.9,296.6z M186.6,303
		c0-2.2-0.7-4-2-5.3c-1.3-1.3-3-1.9-4.9-1.9c-1.5,0-2.9,0.4-4.3,1.1c-1.4,0.7-2.6,1.8-3.6,3.2c-1,1.4-1.7,3-2.1,4.9
		c-0.1,0.7-0.2,1.4-0.2,2.1c0,2.3,0.6,4.1,1.9,5.4c1.3,1.3,2.9,2,4.9,2c1.5,0,2.9-0.4,4.3-1.1c1.4-0.7,2.6-1.8,3.6-3.2
		c1-1.4,1.7-3.1,2-5C186.5,304.2,186.6,303.5,186.6,303z"/>
	<path fill="#004A98" d="M214.9,278.8l-7.5,42.2h-8l7.5-42.2H214.9z"/>
	<path fill="#004A98" d="M281.1,281.2l-7,39.8h-8l4.6-25.8L255.4,321h-6.1l-6.1-25.9l-4.6,25.9h-8l7.1-39.8h9.1l7.5,29.6l17.8-29.6
		H281.1z"/>
	<path fill="#004A98" d="M286.1,296.6c1.7-2.5,3.8-4.4,6.2-5.7c2.4-1.3,5-2,7.7-2c2.4,0,4.3,0.5,6,1.4c1.6,1,2.8,2.2,3.6,3.6
		l0.8-4.5h8.1l-5.6,31.6h-8.1l0.9-4.6c-1.3,1.5-2.9,2.7-4.9,3.7c-2,1-4.2,1.5-6.5,1.5c-2.3,0-4.4-0.5-6.2-1.6
		c-1.8-1-3.2-2.5-4.2-4.5c-1-1.9-1.5-4.2-1.5-6.7c0-1.2,0.1-2.4,0.3-3.7C283.3,301.9,284.4,299.1,286.1,296.6z M307.8,303
		c0-2.2-0.7-4-2-5.3c-1.3-1.3-3-1.9-4.9-1.9c-1.5,0-2.9,0.4-4.3,1.1c-1.4,0.7-2.6,1.8-3.6,3.2c-1,1.4-1.7,3-2.1,4.9
		c-0.1,0.7-0.2,1.4-0.2,2.1c0,2.3,0.6,4.1,1.9,5.4c1.3,1.3,2.9,2,4.9,2c1.5,0,2.9-0.4,4.3-1.1c1.4-0.7,2.6-1.8,3.6-3.2
		c1-1.4,1.7-3.1,2-5C307.7,304.2,307.8,303.5,307.8,303z"/>
	<path fill="#004A98" d="M351.5,291.6c1.9,1.8,2.8,4.3,2.8,7.6c0,1.2-0.1,2.3-0.3,3.3l-3.3,18.6h-7.9l3.1-17.5
		c0.1-0.7,0.2-1.4,0.2-2c0-1.9-0.5-3.3-1.5-4.3c-1-1-2.4-1.5-4.3-1.5c-2.1,0-3.9,0.6-5.5,1.9c-1.5,1.3-2.5,3.1-3,5.5l-3.1,17.9h-8
		l5.6-31.6h8.1l-0.7,3.9c1.3-1.3,2.8-2.4,4.6-3.2c1.8-0.8,3.7-1.2,5.6-1.2C347.1,288.9,349.6,289.8,351.5,291.6z"/>
	<path fill="#004A98" d="M362.5,296.6c1.7-2.5,3.8-4.4,6.2-5.7c2.4-1.3,5-2,7.7-2c2.4,0,4.3,0.5,6,1.4c1.6,1,2.8,2.2,3.6,3.6
		l0.8-4.5h8.1l-5.6,31.6h-8.1l0.9-4.6c-1.3,1.5-2.9,2.7-4.9,3.7c-2,1-4.2,1.5-6.5,1.5c-2.3,0-4.4-0.5-6.2-1.6
		c-1.8-1-3.2-2.5-4.2-4.5c-1-1.9-1.5-4.2-1.5-6.7c0-1.2,0.1-2.4,0.3-3.7C359.7,301.9,360.8,299.1,362.5,296.6z M384.2,303
		c0-2.2-0.7-4-2-5.3c-1.3-1.3-3-1.9-4.9-1.9c-1.5,0-2.9,0.4-4.3,1.1c-1.4,0.7-2.6,1.8-3.6,3.2s-1.7,3-2.1,4.9
		c-0.1,0.7-0.2,1.4-0.2,2.1c0,2.3,0.6,4.1,1.9,5.4c1.3,1.3,2.9,2,4.9,2c1.5,0,2.9-0.4,4.3-1.1c1.4-0.7,2.6-1.8,3.6-3.2
		c1-1.4,1.7-3.1,2-5C384.1,304.2,384.2,303.5,384.2,303z"/>
	<path fill="#004A98" d="M421.2,290.3c1.7,0.9,2.8,2.1,3.5,3.6l0.8-4.5h8.1l-5.6,31.9c-0.5,2.9-1.6,5.5-3.2,7.9
		c-1.6,2.3-3.7,4.1-6.3,5.5c-2.6,1.4-5.6,2-8.9,2c-4.5,0-7.9-1-10.4-3.1c-2.5-2.1-3.6-4.9-3.4-8.6h7.9c0.2,1.4,0.8,2.6,2.1,3.5
		c1.2,0.9,2.8,1.3,4.8,1.3c2.4,0,4.4-0.7,6-2.1c1.7-1.4,2.7-3.5,3.3-6.3l0.9-4.9c-1.3,1.5-2.9,2.7-4.9,3.7c-2,1-4.1,1.5-6.4,1.5
		c-2.3,0-4.4-0.5-6.2-1.6c-1.8-1-3.2-2.5-4.2-4.5c-1-1.9-1.5-4.2-1.5-6.7c0-1.2,0.1-2.4,0.3-3.7c0.6-3.2,1.7-6,3.4-8.5
		c1.7-2.5,3.8-4.4,6.2-5.7c2.4-1.3,5-2,7.7-2C417.5,288.9,419.5,289.3,421.2,290.3z M422.9,303c0-2.2-0.7-4-2-5.3
		c-1.3-1.3-3-1.9-4.9-1.9c-1.5,0-2.9,0.4-4.3,1.1c-1.4,0.7-2.6,1.8-3.6,3.2c-1,1.4-1.7,3-2.1,4.9c-0.1,0.7-0.2,1.4-0.2,2.1
		c0,2.3,0.6,4.1,1.9,5.4c1.3,1.3,2.9,2,4.9,2c1.5,0,2.9-0.4,4.3-1.1c1.4-0.7,2.6-1.8,3.6-3.2c1-1.4,1.7-3.1,2-5
		C422.8,304.2,422.9,303.5,422.9,303z"/>
	<path fill="#004A98" d="M464.9,292.2c2.4,2.2,3.5,5.2,3.5,9c0,1.2-0.1,2.3-0.3,3.3c-0.2,1.1-0.5,2.1-0.7,3h-23.1
		c0,0.3-0.1,0.6-0.1,1.1c0,2,0.6,3.5,1.7,4.7c1.2,1.1,2.7,1.7,4.6,1.7c1.6,0,3-0.4,4.1-1.1c1.2-0.7,2.1-1.6,2.8-2.8h8.6
		c-1.4,3-3.6,5.5-6.5,7.5c-3,2-6.3,2.9-10,2.9c-4,0-7.3-1.1-9.7-3.4c-2.4-2.3-3.7-5.4-3.7-9.3c0-1.1,0.1-2.3,0.3-3.6
		c0.6-3.3,1.7-6.1,3.5-8.6c1.8-2.5,4-4.4,6.6-5.7c2.6-1.3,5.5-2,8.6-2C459.3,288.9,462.5,290,464.9,292.2z M460.3,301.3
		c0-1.8-0.6-3.3-1.8-4.3c-1.2-1-2.7-1.5-4.6-1.5c-2,0-3.8,0.6-5.4,1.9c-1.6,1.3-2.7,3-3.4,5.2h15.1
		C460.3,302,460.3,301.5,460.3,301.3z"/>
	<path fill="#004A98" d="M523.9,291.6c1.9,1.8,2.9,4.3,2.9,7.6c0,1.2-0.1,2.3-0.3,3.3l-3.3,18.6h-7.9l3.1-17.5
		c0.1-0.7,0.2-1.4,0.2-2c0-1.8-0.5-3.2-1.5-4.2c-1-1-2.4-1.5-4.3-1.5c-2.2,0-4.1,0.7-5.6,2c-1.5,1.3-2.5,3.2-2.9,5.7v-0.1l-3.1,17.5
		h-7.9l3.1-17.5c0.1-0.7,0.2-1.3,0.2-1.9c0-1.9-0.5-3.3-1.5-4.3c-1-1-2.5-1.5-4.3-1.5c-2.1,0-3.9,0.6-5.4,1.9
		c-1.5,1.2-2.5,3-2.9,5.3l-3.2,18h-8l5.6-31.6h8.1l-0.7,3.8c1.3-1.3,2.8-2.3,4.5-3.1c1.8-0.8,3.6-1.1,5.5-1.1c2.5,0,4.6,0.5,6.3,1.6
		c1.8,1,3,2.5,3.7,4.5c1.3-1.8,3.1-3.3,5.2-4.4c2.1-1.1,4.4-1.7,6.7-1.7C519.3,288.9,522,289.8,523.9,291.6z"/>
	<path fill="#004A98" d="M559.9,292.2c2.4,2.2,3.5,5.2,3.5,9c0,1.2-0.1,2.3-0.3,3.3c-0.2,1.1-0.5,2.1-0.7,3h-23.1
		c0,0.3-0.1,0.6-0.1,1.1c0,2,0.6,3.5,1.7,4.7c1.2,1.1,2.7,1.7,4.6,1.7c1.6,0,3-0.4,4.1-1.1c1.2-0.7,2.1-1.6,2.8-2.8h8.6
		c-1.4,3-3.6,5.5-6.5,7.5c-3,2-6.3,2.9-10,2.9c-4,0-7.3-1.1-9.7-3.4c-2.4-2.3-3.7-5.4-3.7-9.3c0-1.1,0.1-2.3,0.3-3.6
		c0.6-3.3,1.7-6.1,3.5-8.6c1.8-2.5,4-4.4,6.6-5.7c2.6-1.3,5.5-2,8.6-2C554.4,288.9,557.6,290,559.9,292.2z M555.4,301.3
		c0-1.8-0.6-3.3-1.8-4.3c-1.2-1-2.7-1.5-4.6-1.5c-2,0-3.8,0.6-5.4,1.9c-1.6,1.3-2.7,3-3.4,5.2h15.1
		C555.3,302,555.4,301.5,555.4,301.3z"/>
	<path fill="#004A98" d="M596.9,291.6c1.9,1.8,2.8,4.3,2.8,7.6c0,1.2-0.1,2.3-0.3,3.3l-3.3,18.6h-7.9l3.1-17.5
		c0.1-0.7,0.2-1.4,0.2-2c0-1.9-0.5-3.3-1.5-4.3c-1-1-2.4-1.5-4.3-1.5c-2.1,0-3.9,0.6-5.5,1.9c-1.5,1.3-2.5,3.1-3,5.5l-3.1,17.9h-8
		l5.6-31.6h8.1l-0.7,3.9c1.3-1.3,2.8-2.4,4.6-3.2c1.8-0.8,3.7-1.2,5.6-1.2C592.5,288.9,595.1,289.8,596.9,291.6z"/>
	<path fill="#004A98" d="M614.8,311.3c0,0.2-0.1,0.5-0.1,0.9c0,0.8,0.2,1.3,0.7,1.6c0.4,0.3,1.2,0.5,2.2,0.5h3.8l-1.2,6.7h-5.1
		c-5.7,0-8.6-2.4-8.6-7.1c0-0.9,0.1-1.8,0.2-2.7l2.7-15.2h-3.8l1.1-6.6h3.8l1.4-7.8h8l-1.4,7.8h7l-1.1,6.6h-7.1L614.8,311.3z"/>
	<path fill="#004A98" d="M646.5,318.7c-2.6-1.8-3.9-4.3-3.9-7.6c0-0.3,0-0.9,0.1-1.5h8.2c-0.2,1.6,0.3,2.9,1.3,3.9
		c1,1,2.5,1.5,4.4,1.5c1.9,0,3.5-0.4,4.6-1.2c1.1-0.8,1.7-2,1.7-3.5c0-1.4-0.6-2.5-1.7-3.4c-1.2-0.8-3-1.8-5.5-2.8
		c-2.3-1-4.1-1.8-5.6-2.6c-1.4-0.8-2.6-1.9-3.7-3.3c-1-1.4-1.5-3.2-1.5-5.4c0-2.5,0.6-4.6,1.9-6.5c1.3-1.8,3-3.2,5.3-4.2
		c2.2-1,4.8-1.5,7.6-1.5c2.8,0,5.3,0.5,7.3,1.4c2.1,0.9,3.6,2.3,4.7,4c1,1.7,1.5,3.7,1.3,6h-8.5l0.1-0.6c0-1.3-0.5-2.3-1.4-3.1
		c-0.9-0.8-2.2-1.2-3.9-1.2c-1.8,0-3.2,0.4-4.3,1.3c-1.1,0.8-1.7,2-1.7,3.4c0,1,0.3,1.8,0.9,2.5c0.6,0.7,1.4,1.3,2.3,1.8
		c0.9,0.5,2.2,1.2,3.9,2c2.2,1,4.1,1.9,5.5,2.8c1.4,0.9,2.7,2,3.7,3.5c1,1.4,1.5,3.2,1.5,5.3c0,2.3-0.6,4.3-1.9,6.1
		c-1.2,1.8-3,3.2-5.3,4.2c-2.3,1-4.9,1.5-7.9,1.5C652.3,321.4,649.1,320.5,646.5,318.7z"/>
	<path fill="#004A98" d="M711.5,289.4l-5.6,31.6h-8l0.7-4c-1.2,1.4-2.7,2.4-4.5,3.2c-1.8,0.8-3.7,1.2-5.7,1.2
		c-3.3,0-5.9-0.9-7.8-2.7c-1.9-1.8-2.9-4.3-2.9-7.6c0-1.2,0.1-2.3,0.3-3.3l3.3-18.6h8l-3.1,17.4c-0.1,0.7-0.2,1.4-0.2,2
		c0,1.9,0.5,3.3,1.5,4.3c1,1,2.5,1.5,4.3,1.5c2.2,0,4-0.7,5.5-2c1.5-1.4,2.5-3.3,2.9-5.8l3.1-17.4H711.5z"/>
	<path fill="#004A98" d="M727.4,289.4l-5.6,31.6h-8l5.6-31.6H727.4z M721.1,284.5c-0.8-0.7-1.1-1.6-1.1-2.7c0-1.5,0.6-2.8,1.7-3.9
		c1.2-1.1,2.5-1.6,4.1-1.6c1.2,0,2.2,0.4,3,1.1c0.8,0.7,1.1,1.6,1.1,2.7c0,1.5-0.6,2.8-1.7,3.9c-1.1,1.1-2.5,1.6-4.1,1.6
		C722.9,285.6,721.8,285.3,721.1,284.5z"/>
	<path fill="#004A98" d="M740.7,311.3c0,0.2-0.1,0.5-0.1,0.9c0,0.8,0.2,1.3,0.7,1.6c0.4,0.3,1.2,0.5,2.2,0.5h3.8l-1.2,6.7H741
		c-5.7,0-8.6-2.4-8.6-7.1c0-0.9,0.1-1.8,0.2-2.7l2.7-15.2h-3.8l1.1-6.6h3.8l1.4-7.8h8l-1.4,7.8h7l-1.1,6.6h-7.1L740.7,311.3z"/>
	<path fill="#004A98" d="M780.9,292.2c2.4,2.2,3.5,5.2,3.5,9c0,1.2-0.1,2.3-0.3,3.3c-0.2,1.1-0.5,2.1-0.7,3h-23.1
		c0,0.3-0.1,0.6-0.1,1.1c0,2,0.6,3.5,1.7,4.7c1.2,1.1,2.7,1.7,4.6,1.7c1.6,0,3-0.4,4.1-1.1c1.2-0.7,2.1-1.6,2.8-2.8h8.6
		c-1.4,3-3.6,5.5-6.5,7.5c-3,2-6.3,2.9-10,2.9c-4,0-7.3-1.1-9.7-3.4c-2.4-2.3-3.7-5.4-3.7-9.3c0-1.1,0.1-2.3,0.3-3.6
		c0.6-3.3,1.7-6.1,3.5-8.6c1.8-2.5,4-4.4,6.6-5.7c2.6-1.3,5.5-2,8.6-2C775.4,288.9,778.6,290,780.9,292.2z M776.3,301.3
		c0-1.8-0.6-3.3-1.8-4.3c-1.2-1-2.7-1.5-4.6-1.5c-2,0-3.8,0.6-5.4,1.9c-1.6,1.3-2.7,3-3.4,5.2h15.1
		C776.3,302,776.3,301.5,776.3,301.3z"/>
</g>
<g>
	<path fill="#004A98" d="M25.3,175.1l-1,5.2h-8.8l-5,28H3.9l5-28H0l1-5.2H25.3z"/>
	<path fill="#004A98" d="M29.4,182.9c1.9-2.6,4.3-4.6,7.1-6s5.8-2.2,9-2.2c3.7,0,6.8,1,9.3,2.9s4,4.5,4.5,7.9h-7.7
		c-0.5-1.5-1.4-2.7-2.6-3.5c-1.2-0.8-2.8-1.2-4.6-1.2c-1.9,0-3.7,0.4-5.4,1.3c-1.7,0.9-3.1,2.2-4.2,3.8c-1.1,1.7-1.9,3.6-2.3,5.7
		c-0.2,1-0.2,1.9-0.2,2.5c0,2.6,0.7,4.6,2.2,6.1c1.5,1.5,3.5,2.2,6,2.2c1.8,0,3.5-0.4,5-1.2c1.5-0.8,2.8-2,3.9-3.5h7.7
		c-1.7,3.4-4.1,6-7.3,7.9c-3.1,1.9-6.5,2.8-10.3,2.8c-2.8,0-5.3-0.6-7.4-1.7s-3.8-2.7-5-4.8c-1.2-2.1-1.8-4.4-1.8-7.1
		c0-1.1,0.1-2.2,0.3-3.4C26.2,188.5,27.5,185.5,29.4,182.9z"/>
	<path fill="#004A98" d="M87,190.4c-1.1,1.6-2.6,2.8-4.6,3.8c-2,1-4.3,1.4-7,1.4h-5.6l-2.2,12.8h-6.7l5.9-33.2H79
		c3.4,0,6,0.8,7.7,2.3c1.7,1.5,2.6,3.5,2.6,6c0,0.7-0.1,1.4-0.2,2C88.8,187.2,88.1,188.9,87,190.4z M80.4,189.1c1-0.9,1.7-2.1,2-3.6
		c0.1-0.3,0.1-0.7,0.1-1.2c0-2.5-1.6-3.8-4.7-3.8h-5.2l-1.8,10h5.3C77.9,190.4,79.3,189.9,80.4,189.1z"/>
	<path fill="#004A98" d="M124.1,202.1h-13.3l-3.3,6.3h-7l17.9-33.3h7.8l6,33.3h-7L124.1,202.1z M123.3,196.9l-2.4-14.1l-7.3,14.1
		H123.3z"/>
	<path fill="#004A98" d="M140.3,188c1.5-2,3.3-3.6,5.5-4.8c2.2-1.1,4.5-1.7,7.1-1.7c3.3,0,5.8,0.8,7.7,2.4c1.9,1.6,2.9,3.9,3.1,6.9
		h-7.2c-0.2-1.1-0.7-2-1.5-2.7c-0.8-0.7-1.9-1-3.2-1c-1.9,0-3.5,0.7-4.9,2.1c-1.4,1.4-2.2,3.3-2.7,5.9c-0.2,0.9-0.2,1.7-0.2,2.3
		c0,1.8,0.4,3.2,1.3,4.2c0.9,1,2.1,1.5,3.7,1.5c2.7,0,4.6-1.2,5.9-3.6h7.2c-1.2,2.9-3.1,5.1-5.5,6.8c-2.5,1.7-5.3,2.5-8.5,2.5
		c-3.3,0-6-0.9-8-2.8c-2-1.9-3-4.5-3-7.7c0-1,0.1-2,0.3-3.1C137.8,192.5,138.8,190.1,140.3,188z"/>
	<path fill="#004A98" d="M168.9,188c1.5-2,3.3-3.6,5.5-4.8c2.2-1.1,4.5-1.7,7.1-1.7c3.3,0,5.8,0.8,7.7,2.4c1.9,1.6,2.9,3.9,3.1,6.9
		h-7.2c-0.2-1.1-0.7-2-1.5-2.7c-0.8-0.7-1.9-1-3.2-1c-1.9,0-3.5,0.7-4.9,2.1c-1.4,1.4-2.2,3.3-2.7,5.9c-0.2,0.9-0.2,1.7-0.2,2.3
		c0,1.8,0.4,3.2,1.3,4.2c0.9,1,2.1,1.5,3.7,1.5c2.7,0,4.6-1.2,5.9-3.6h7.2c-1.2,2.9-3.1,5.1-5.6,6.8c-2.5,1.7-5.3,2.5-8.5,2.5
		c-3.3,0-6-0.9-8-2.8s-3-4.5-3-7.7c0-1,0.1-2,0.3-3.1C166.5,192.5,167.5,190.1,168.9,188z"/>
	<path fill="#004A98" d="M218.3,184.4c2,1.9,3,4.4,3,7.5c0,1-0.1,1.9-0.2,2.7c-0.2,1-0.4,1.8-0.6,2.5h-19.3c0,0.2,0,0.5,0,1
		c0,1.7,0.5,2.9,1.5,3.9c1,0.9,2.2,1.4,3.8,1.4c1.3,0,2.5-0.3,3.5-0.9c1-0.6,1.8-1.4,2.4-2.3h7.2c-1.2,2.5-3,4.6-5.5,6.3
		c-2.5,1.6-5.2,2.5-8.4,2.5c-3.4,0-6.1-1-8.1-2.9c-2-1.9-3-4.5-3-7.8c0-1,0.1-2,0.3-3c0.5-2.7,1.5-5.1,2.9-7.2
		c1.5-2.1,3.3-3.7,5.5-4.8c2.2-1.1,4.6-1.7,7.2-1.7C213.7,181.6,216.4,182.5,218.3,184.4z M214.5,191.9c0-1.5-0.5-2.7-1.5-3.6
		c-1-0.9-2.3-1.3-3.9-1.3c-1.7,0-3.2,0.5-4.5,1.6c-1.3,1.1-2.3,2.5-2.8,4.4h12.6C214.5,192.5,214.5,192.1,214.5,191.9z"/>
	<path fill="#004A98" d="M236.4,173.1l-6.2,35.2h-6.7l6.2-35.2H236.4z"/>
	<path fill="#004A98" d="M261,184.4c2,1.9,3,4.4,3,7.5c0,1-0.1,1.9-0.2,2.7c-0.2,1-0.4,1.8-0.6,2.5h-19.3c0,0.2,0,0.5,0,1
		c0,1.7,0.5,2.9,1.5,3.9c1,0.9,2.2,1.4,3.8,1.4c1.3,0,2.5-0.3,3.5-0.9c1-0.6,1.8-1.4,2.4-2.3h7.2c-1.2,2.5-3,4.6-5.5,6.3
		s-5.2,2.5-8.4,2.5c-3.4,0-6.1-1-8.1-2.9c-2-1.9-3-4.5-3-7.8c0-1,0.1-2,0.3-3c0.5-2.7,1.5-5.1,2.9-7.2c1.5-2.1,3.3-3.7,5.5-4.8
		c2.2-1.1,4.6-1.7,7.2-1.7C256.3,181.6,259,182.5,261,184.4z M257.2,191.9c0-1.5-0.5-2.7-1.5-3.6c-1-0.9-2.3-1.3-3.9-1.3
		c-1.7,0-3.2,0.5-4.5,1.6c-1.3,1.1-2.3,2.5-2.8,4.4h12.6C257.1,192.5,257.2,192.1,257.2,191.9z"/>
	<path fill="#004A98" d="M280.6,183c1.5-0.9,3.2-1.3,5-1.3l-1.2,7h-1.8c-2,0-3.5,0.4-4.7,1.3c-1.2,0.9-2.1,2.3-2.6,4.4l-2.5,14.1
		h-6.7l4.7-26.4h6.7l-0.8,4.7C277.8,185.1,279.1,183.8,280.6,183z"/>
	<path fill="#004A98" d="M288.8,188c1.4-2.1,3.1-3.7,5.2-4.8c2-1.1,4.2-1.7,6.4-1.7c2,0,3.6,0.4,5,1.2c1.3,0.8,2.3,1.8,3,3l0.7-3.8
		h6.7l-4.7,26.4h-6.7l0.7-3.9c-1,1.2-2.4,2.3-4.1,3.1c-1.7,0.8-3.5,1.2-5.5,1.2c-1.9,0-3.7-0.4-5.1-1.3c-1.5-0.9-2.7-2.1-3.5-3.7
		c-0.8-1.6-1.2-3.5-1.2-5.6c0-1,0.1-2,0.3-3.1C286.4,192.4,287.4,190.1,288.8,188z M306.9,193.4c0-1.9-0.5-3.3-1.6-4.4
		c-1.1-1-2.5-1.6-4.1-1.6c-1.2,0-2.4,0.3-3.6,0.9c-1.2,0.6-2.2,1.5-3,2.6c-0.9,1.2-1.4,2.5-1.7,4.1c-0.1,0.6-0.1,1.2-0.1,1.7
		c0,1.9,0.5,3.4,1.6,4.5c1.1,1.1,2.4,1.6,4.1,1.6c1.2,0,2.4-0.3,3.6-0.9c1.2-0.6,2.2-1.5,3-2.7c0.8-1.2,1.4-2.6,1.7-4.1
		C306.8,194.4,306.9,193.8,306.9,193.4z"/>
	<path fill="#004A98" d="M326.8,200.2c0,0.2,0,0.4,0,0.8c0,0.6,0.2,1.1,0.5,1.4c0.4,0.3,1,0.4,1.8,0.4h3.1l-1,5.6h-4.2
		c-4.8,0-7.1-2-7.1-6c0-0.8,0.1-1.5,0.2-2.2l2.2-12.7h-3.1l1-5.5h3.2l1.1-6.5h6.7l-1.1,6.5h5.9l-1,5.5h-5.9L326.8,200.2z"/>
	<path fill="#004A98" d="M347.5,182l-4.7,26.4h-6.7l4.7-26.4H347.5z M342.2,178c-0.6-0.6-1-1.4-1-2.3c0-1.3,0.5-2.4,1.5-3.3
		c1-0.9,2.1-1.4,3.4-1.4c1,0,1.8,0.3,2.5,0.9c0.6,0.6,1,1.4,1,2.3c0,1.3-0.5,2.4-1.4,3.3c-1,0.9-2.1,1.4-3.4,1.4
		C343.6,178.9,342.8,178.6,342.2,178z"/>
	<path fill="#004A98" d="M355.1,207.4c-1.7-0.9-3.1-2.2-4-3.9c-1-1.7-1.4-3.6-1.4-5.8c0-3,0.7-5.7,2.1-8.2c1.4-2.5,3.3-4.4,5.8-5.8
		s5.2-2.1,8.2-2.1c2.3,0,4.3,0.5,6,1.4c1.8,0.9,3.1,2.2,4.1,3.9c1,1.7,1.5,3.6,1.5,5.8c0,3-0.7,5.7-2.1,8.2
		c-1.4,2.4-3.4,4.4-5.9,5.8c-2.5,1.4-5.2,2.1-8.3,2.1C358.9,208.8,356.9,208.4,355.1,207.4z M366.4,201.7c1.3-0.9,2.3-2.1,3-3.7
		c0.7-1.5,1.1-3.1,1.1-4.8c0-1.9-0.5-3.4-1.6-4.4c-1.1-1-2.4-1.5-4-1.5c-1.6,0-3.1,0.5-4.3,1.4c-1.3,0.9-2.2,2.2-2.9,3.7
		c-0.7,1.5-1,3.2-1,4.9c0,1.9,0.5,3.3,1.5,4.3c1,1,2.3,1.5,3.9,1.5C363.6,203.1,365.1,202.6,366.4,201.7z"/>
	<path fill="#004A98" d="M405.5,183.8c1.6,1.5,2.4,3.6,2.4,6.3c0,1-0.1,1.9-0.2,2.8l-2.8,15.5h-6.6l2.6-14.6
		c0.1-0.6,0.1-1.1,0.1-1.7c0-1.6-0.4-2.8-1.3-3.6c-0.8-0.8-2-1.2-3.6-1.2c-1.8,0-3.3,0.5-4.5,1.6c-1.3,1.1-2.1,2.6-2.5,4.6
		l-2.6,14.9h-6.7l4.7-26.4h6.7l-0.6,3.2c1.1-1.1,2.4-2,3.9-2.6c1.5-0.7,3-1,4.7-1C401.8,181.6,403.9,182.4,405.5,183.8z"/>
	<path fill="#004A98" d="M451.2,200.4l6.7,8h-8.2l-3-3.6c-3.6,2.8-7.6,4.1-12,4.1c-3.3,0-6-0.8-7.9-2.3c-1.9-1.5-2.9-3.6-2.9-6.3
		c0-2.6,0.9-4.9,2.6-6.9c1.7-2,4-3.7,6.9-4.8c-1-1.5-1.5-3-1.5-4.5c0-1.9,0.5-3.5,1.4-5c1-1.5,2.3-2.6,4-3.4
		c1.7-0.8,3.6-1.2,5.8-1.2c2.6,0,4.6,0.6,6,1.9c1.4,1.3,2.1,2.8,2.1,4.7c0,0.4,0,0.9-0.1,1.3h-6.5c0-0.1,0-0.3,0-0.6
		c0-0.7-0.2-1.3-0.7-1.7c-0.5-0.4-1.1-0.6-1.9-0.6c-1,0-1.9,0.3-2.6,1c-0.7,0.7-1,1.5-1,2.5c0,0.6,0.2,1.3,0.5,2
		c0.4,0.7,0.9,1.5,1.6,2.5l7,8.3l0.3-0.4l3.5-4.5h7l-4.4,5.9C453,198.2,452.1,199.4,451.2,200.4z M443.2,200.7l-6.8-8.1
		c-1.8,0.7-3.2,1.7-4.2,2.8c-1,1.2-1.5,2.5-1.5,3.9c0,1.2,0.5,2.2,1.4,3c0.9,0.8,2.2,1.2,3.7,1.2C438.5,203.4,441,202.5,443.2,200.7
		z"/>
	<path fill="#004A98" d="M482.5,206.9c-2.1-1.2-3.8-2.8-5-5c-1.2-2.1-1.8-4.5-1.8-7.3c0-3.8,0.8-7.2,2.5-10.3c1.7-3,4-5.4,7-7.2
		c3-1.7,6.4-2.6,10.1-2.6c2.8,0,5.3,0.6,7.5,1.8c2.1,1.2,3.8,2.8,5,4.9c1.2,2.1,1.8,4.5,1.8,7.2c0,3.9-0.8,7.3-2.5,10.4
		c-1.7,3-4,5.4-7,7.2c-3,1.7-6.4,2.6-10.2,2.6C487.1,208.7,484.7,208.1,482.5,206.9z M497.2,200.8c1.8-1.2,3.2-2.8,4.2-4.9
		c1-2,1.5-4.3,1.5-6.7c0-2.6-0.7-4.7-2.2-6.1c-1.5-1.5-3.5-2.2-6.1-2.2c-2.3,0-4.4,0.6-6.3,1.8c-1.8,1.2-3.2,2.8-4.2,4.9
		c-1,2-1.5,4.3-1.5,6.7c0,2.6,0.7,4.7,2.2,6.2c1.4,1.5,3.5,2.3,6.1,2.3C493.2,202.6,495.4,202,497.2,200.8z"/>
	<path fill="#004A98" d="M526.5,182.8c1.6-0.8,3.4-1.2,5.4-1.2c2,0,3.7,0.4,5.2,1.3c1.5,0.8,2.7,2.1,3.5,3.6
		c0.8,1.6,1.2,3.4,1.2,5.6c0,1-0.1,2-0.3,3c-0.5,2.7-1.4,5.1-2.9,7.2c-1.4,2.1-3.2,3.7-5.2,4.8c-2,1.1-4.2,1.7-6.4,1.7
		c-1.9,0-3.6-0.4-4.9-1.2c-1.4-0.8-2.4-1.8-3.1-3l-2.9,16.3h-6.7l6.9-39h6.7l-0.7,3.8C523.5,184.6,524.9,183.6,526.5,182.8z
		 M534.9,193.4c0-1.9-0.5-3.3-1.6-4.4c-1.1-1-2.5-1.6-4.1-1.6c-1.2,0-2.4,0.3-3.6,0.9c-1.2,0.6-2.2,1.5-3,2.7
		c-0.9,1.2-1.4,2.6-1.7,4.1c-0.1,0.8-0.2,1.4-0.2,1.8c0,1.9,0.5,3.3,1.6,4.4c1.1,1,2.5,1.6,4.1,1.6c1.2,0,2.4-0.3,3.6-1
		c1.2-0.6,2.2-1.5,3-2.7s1.4-2.6,1.7-4.2C534.8,194.5,534.9,193.9,534.9,193.4z"/>
	<path fill="#004A98" d="M553.3,200.2c0,0.2,0,0.4,0,0.8c0,0.6,0.2,1.1,0.5,1.4c0.4,0.3,1,0.4,1.8,0.4h3.1l-1,5.6h-4.2
		c-4.8,0-7.1-2-7.1-6c0-0.8,0.1-1.5,0.2-2.2l2.2-12.7h-3.1l1-5.5h3.2l1.1-6.5h6.7l-1.1,6.5h5.9l-1,5.5h-5.9L553.3,200.2z"/>
	<path fill="#004A98" d="M573.9,182l-4.7,26.4h-6.7l4.7-26.4H573.9z M568.6,178c-0.6-0.6-1-1.4-1-2.3c0-1.3,0.5-2.4,1.5-3.3
		c1-0.9,2.1-1.4,3.4-1.4c1,0,1.8,0.3,2.5,0.9c0.6,0.6,1,1.4,1,2.3c0,1.3-0.5,2.4-1.4,3.3c-1,0.9-2.1,1.4-3.4,1.4
		C570.1,178.9,569.2,178.6,568.6,178z"/>
	<path fill="#004A98" d="M619.9,183.9c1.6,1.5,2.4,3.6,2.4,6.3c0,1-0.1,1.9-0.2,2.7l-2.8,15.5h-6.6l2.6-14.6
		c0.1-0.6,0.1-1.1,0.1-1.7c0-1.5-0.4-2.7-1.3-3.5c-0.8-0.8-2-1.2-3.6-1.2c-1.8,0-3.4,0.5-4.7,1.6c-1.3,1.1-2.1,2.7-2.4,4.7v0
		l-2.6,14.6h-6.6l2.6-14.6c0.1-0.6,0.1-1.1,0.1-1.6c0-1.6-0.4-2.7-1.3-3.5c-0.9-0.8-2.1-1.2-3.6-1.2c-1.7,0-3.2,0.5-4.5,1.5
		c-1.3,1-2.1,2.5-2.5,4.4l-2.7,15h-6.7l4.7-26.4h6.7l-0.6,3.1c1-1.1,2.3-1.9,3.8-2.6c1.5-0.6,3-1,4.6-1c2.1,0,3.8,0.4,5.3,1.3
		c1.5,0.9,2.5,2.1,3.1,3.7c1.1-1.5,2.6-2.7,4.4-3.7c1.8-0.9,3.7-1.4,5.6-1.4C616.1,181.6,618.3,182.4,619.9,183.9z"/>
	<path fill="#004A98" d="M637,182l-4.7,26.4h-6.7l4.7-26.4H637z M631.8,178c-0.6-0.6-1-1.4-1-2.3c0-1.3,0.5-2.4,1.5-3.3
		c1-0.9,2.1-1.4,3.4-1.4c1,0,1.8,0.3,2.5,0.9c0.6,0.6,1,1.4,1,2.3c0,1.3-0.5,2.4-1.4,3.3c-1,0.9-2.1,1.4-3.4,1.4
		C633.2,178.9,632.4,178.6,631.8,178z"/>
	<path fill="#004A98" d="M646,202.9h11.7l-1,5.5h-19.3l1-5.4l14.2-15.5h-11.5l1-5.5h19.1l-0.9,5.4L646,202.9z"/>
	<path fill="#004A98" d="M665.4,188c1.4-2.1,3.1-3.7,5.2-4.8c2-1.1,4.2-1.7,6.4-1.7c2,0,3.6,0.4,5,1.2c1.4,0.8,2.3,1.8,3,3l0.7-3.8
		h6.7l-4.7,26.4H681l0.7-3.9c-1,1.2-2.4,2.3-4.1,3.1c-1.7,0.8-3.5,1.2-5.5,1.2c-1.9,0-3.7-0.4-5.1-1.3c-1.5-0.9-2.7-2.1-3.5-3.7
		s-1.2-3.5-1.2-5.6c0-1,0.1-2,0.3-3.1C663,192.4,664,190.1,665.4,188z M683.5,193.4c0-1.9-0.5-3.3-1.6-4.4c-1.1-1-2.5-1.6-4.1-1.6
		c-1.2,0-2.4,0.3-3.6,0.9c-1.2,0.6-2.2,1.5-3,2.6c-0.9,1.2-1.4,2.5-1.7,4.1c-0.1,0.6-0.1,1.2-0.1,1.7c0,1.9,0.5,3.4,1.6,4.5
		c1.1,1.1,2.4,1.6,4.1,1.6c1.2,0,2.4-0.3,3.6-0.9c1.2-0.6,2.2-1.5,3-2.7c0.8-1.2,1.4-2.6,1.7-4.1
		C683.4,194.4,683.5,193.8,683.5,193.4z"/>
	<path fill="#004A98" d="M703.4,200.2c0,0.2,0,0.4,0,0.8c0,0.6,0.2,1.1,0.5,1.4c0.4,0.3,1,0.4,1.8,0.4h3.1l-1,5.6h-4.2
		c-4.8,0-7.1-2-7.1-6c0-0.8,0.1-1.5,0.2-2.2l2.2-12.7h-3.1l1-5.5h3.2l1.1-6.5h6.7l-1.1,6.5h5.9l-1,5.5h-5.9L703.4,200.2z"/>
	<path fill="#004A98" d="M724.1,182l-4.7,26.4h-6.7l4.7-26.4H724.1z M718.8,178c-0.6-0.6-1-1.4-1-2.3c0-1.3,0.5-2.4,1.5-3.3
		c1-0.9,2.1-1.4,3.4-1.4c1,0,1.8,0.3,2.5,0.9c0.6,0.6,1,1.4,1,2.3c0,1.3-0.5,2.4-1.4,3.3c-1,0.9-2.1,1.4-3.4,1.4
		C720.2,178.9,719.4,178.6,718.8,178z"/>
	<path fill="#004A98" d="M731.8,207.4c-1.7-0.9-3.1-2.2-4-3.9c-1-1.7-1.4-3.6-1.4-5.8c0-3,0.7-5.7,2.1-8.2c1.4-2.5,3.4-4.4,5.8-5.8
		c2.5-1.4,5.2-2.1,8.2-2.1c2.3,0,4.3,0.5,6,1.4c1.8,0.9,3.1,2.2,4.1,3.9c1,1.7,1.5,3.6,1.5,5.8c0,3-0.7,5.7-2.1,8.2
		c-1.4,2.4-3.4,4.4-5.9,5.8c-2.5,1.4-5.2,2.1-8.3,2.1C735.5,208.8,733.5,208.4,731.8,207.4z M743,201.7c1.3-0.9,2.3-2.1,3-3.7
		c0.7-1.5,1.1-3.1,1.1-4.8c0-1.9-0.5-3.4-1.6-4.4c-1.1-1-2.4-1.5-4-1.5c-1.6,0-3.1,0.5-4.3,1.4c-1.3,0.9-2.2,2.2-2.9,3.7
		c-0.7,1.5-1,3.2-1,4.9c0,1.9,0.5,3.3,1.5,4.3c1,1,2.3,1.5,3.9,1.5C740.2,203.1,741.7,202.6,743,201.7z"/>
	<path fill="#004A98" d="M782.1,183.8c1.6,1.5,2.4,3.6,2.4,6.3c0,1-0.1,1.9-0.2,2.8l-2.8,15.5h-6.6l2.6-14.6
		c0.1-0.6,0.1-1.1,0.1-1.7c0-1.6-0.4-2.8-1.3-3.6c-0.8-0.8-2-1.2-3.6-1.2c-1.8,0-3.3,0.5-4.5,1.6c-1.3,1.1-2.1,2.6-2.5,4.6
		l-2.6,14.9h-6.7L761,182h6.7l-0.6,3.2c1.1-1.1,2.4-2,3.9-2.6c1.5-0.7,3-1,4.7-1C778.4,181.6,780.5,182.4,782.1,183.8z"/>
</g>
<g>
	<path fill="#0F9FDB" d="M62.1,98.1c-2.2,10.3-6.3,18.2-12.3,23.6c-6,5.5-14.3,8.2-24.9,8.2c-4.6,0-8.5-0.4-11.6-1.3
		c-3.2-0.9-5.7-2.2-7.7-3.8c-2-1.7-3.4-3.8-4.3-6.3C0.4,116,0,113.1,0,109.9c0-1.9,0.1-3.8,0.4-5.9c0.3-2.1,0.7-4.3,1.1-6.7l1.9-8.6
		h19.6l-1.8,8.4c-0.6,2.6-0.9,4.7-0.9,6.5c0,2.4,0.6,4.2,1.9,5.4c1.3,1.2,3.4,1.8,6.5,1.8c2.1,0,3.9-0.3,5.4-0.9
		c1.5-0.6,2.8-1.5,3.9-2.6c1.1-1.1,2-2.5,2.7-4c0.7-1.6,1.2-3.3,1.5-5.1l0.2-1.1c0.3-1.6,0.5-3,0.7-4.4c0.2-1.3,0.3-2.6,0.3-3.7
		c0-2.3-0.4-4.4-1.3-6.1c-0.8-1.7-2.4-3.4-4.5-5l-10.1-7.6c-2.5-1.9-4.5-3.7-6.2-5.4c-1.7-1.7-3-3.5-4.1-5.3
		c-1.1-1.8-1.8-3.6-2.3-5.4c-0.5-1.9-0.7-3.8-0.7-6c0-1.9,0.1-3.8,0.4-5.9c0.3-2.1,0.7-4.4,1.3-6.9l0.5-2.2
		c2.3-10.7,6.6-18.6,12.8-23.5c6.2-4.9,14.1-7.4,23.7-7.4c8.2,0,14.2,1.6,18.1,4.9C75,10.4,77,15.4,77,22.2c0,3.4-0.4,7.1-1.3,11
		l-2.1,10H53.9l2.2-11c0.3-1.4,0.5-2.7,0.5-3.9c0-2.2-0.6-3.9-1.8-5.2c-1.2-1.3-3.2-2-6-2c-3.7,0-6.6,1.2-8.6,3.5
		c-2,2.3-3.4,5.3-4.1,9l-0.4,2.4c-0.3,1.5-0.4,2.9-0.4,4.1c0,2.4,0.5,4.6,1.4,6.7c0.9,2,2.4,3.8,4.4,5.2l9.2,6.2
		c5,3.5,8.6,7.2,10.7,11.2c2.1,4,3.2,8.4,3.2,13.4c0,1.7-0.1,3.5-0.3,5.4c-0.2,1.8-0.5,3.8-1,5.8L62.1,98.1z"/>
	<g>
		<path fill="none" d="M116.6,46.8c-2.1,0-3.9,0.5-5.4,1.4s-2.8,2.2-3.8,3.7c-1,1.5-1.9,3.2-2.5,5.1c-0.7,1.9-1.2,3.8-1.7,5.7
			l-0.5,2.4l-4.6,21.3l-1.8,8.1c-0.2,1.1-0.4,2.2-0.6,3.3c-0.3,1.6-0.4,3.2-0.4,4.7c0,1.2,0.1,2.3,0.3,3.4c0.2,1,0.6,1.9,1.2,2.7
			c0.6,0.8,1.3,1.4,2.3,1.8c1,0.4,2.1,0.7,3.6,0.7c2.3,0,4.2-0.4,5.7-1.3c1.5-0.9,2.7-2,3.7-3.5c1-1.5,1.8-3.2,2.4-5.1
			c0.6-1.9,1.1-3.9,1.6-6l7-32.4c0.3-1.5,0.6-2.9,0.9-4.4c0.2-1.4,0.4-2.8,0.4-4c0-2.2-0.5-4-1.6-5.4
			C121.6,47.5,119.6,46.8,116.6,46.8z"/>
		<path fill="#0F9FDB" d="M143.4,39.5c-0.6-2.3-1.7-4.4-3.2-6.1c-1.5-1.7-3.4-3-5.9-3.9c-2.5-0.9-5.5-1.4-9.2-1.4
			c-3.9,0-7.2,1-9.9,2.9c-2.7,1.9-5,4.5-6.9,7.8l2-8.9H91L63.3,158.2h19.3l8.5-39.4c0.5,3.4,1.7,6.1,3.6,8.1c1.9,2,4.8,3,8.8,3
			c5.2,0,9.6-0.9,13.2-2.8c3.6-1.9,6.6-4.4,9-7.6c2.5-3.2,4.4-6.9,5.9-11.2c1.5-4.3,2.8-8.8,3.8-13.5l6.9-31.7
			c0.6-2.9,1.1-5.7,1.5-8.3c0.4-2.6,0.6-5.2,0.6-7.6C144.4,44.4,144,41.9,143.4,39.5z M123.9,58.4c-0.2,1.4-0.5,2.9-0.9,4.4l-7,32.4
			c-0.5,2.1-1,4.1-1.6,6c-0.6,1.9-1.4,3.6-2.4,5.1c-1,1.5-2.2,2.6-3.7,3.5c-1.5,0.9-3.4,1.3-5.7,1.3c-1.4,0-2.6-0.2-3.6-0.7
			c-1-0.4-1.7-1-2.3-1.8c-0.6-0.8-1-1.7-1.2-2.7c-0.2-1-0.3-2.2-0.3-3.4c0-1.5,0.2-3.1,0.4-4.7c0.2-1.1,0.4-2.2,0.6-3.3l1.8-8.1
			l4.6-21.3l0.5-2.4c0.5-1.9,1.1-3.8,1.7-5.7c0.7-1.9,1.5-3.6,2.5-5.1c1-1.5,2.3-2.8,3.8-3.7s3.3-1.4,5.4-1.4c2.9,0,4.9,0.7,6,2.2
			c1.1,1.4,1.6,3.3,1.6,5.4C124.2,55.6,124.1,57,123.9,58.4z"/>
	</g>
	<path fill="#0F9FDB" d="M279,95l-0.3,1.9c-0.9,4.5-2.2,8.8-3.8,12.8c-1.6,4-3.8,7.5-6.5,10.5c-2.8,3-6.2,5.3-10.4,7.1
		c-4.2,1.7-9.3,2.6-15.4,2.6c-4.5,0-8.3-0.5-11.4-1.6c-3.1-1-5.5-2.5-7.3-4.4c-1.8-1.9-3.1-4.1-3.9-6.7c-0.8-2.6-1.1-5.4-1.1-8.5
		c0-2.1,0.1-4.4,0.4-6.7c0.3-2.3,0.7-4.7,1.3-7.2l6.9-31.7c1-4.7,2.4-9.2,4.1-13.5c1.7-4.3,3.9-8,6.7-11.2c2.8-3.2,6.3-5.7,10.6-7.6
		c4.2-1.9,9.4-2.8,15.5-2.8c4.5,0,8.3,0.5,11.3,1.5c3,1,5.5,2.4,7.3,4.2c1.8,1.8,3.1,3.9,3.9,6.4c0.8,2.5,1.1,5.2,1.1,8.1
		c0,2-0.2,4.1-0.4,6.3c-0.3,2.2-0.7,4.4-1.2,6.7l-3.2,15H283l-1.1,5.6l-41,7.5l-1.2,5.7c-0.3,1.4-0.6,2.8-0.8,4.2
		c-0.2,1.4-0.3,2.7-0.3,4c0,1.1,0.1,2.1,0.4,3.1c0.2,1,0.7,1.8,1.3,2.5c0.6,0.7,1.4,1.3,2.4,1.6c1,0.4,2.2,0.6,3.8,0.6
		c2.3,0,4.2-0.4,5.7-1.2c1.5-0.8,2.7-1.8,3.7-3.1c1-1.3,1.7-2.8,2.3-4.5c0.5-1.7,0.6-1.8,1-3.5L279,95z M260.3,46.8
		c-2.3,0-4.2,0.4-5.8,1.3c-1.6,0.9-2.8,2.1-3.8,3.6c-1,1.5-1.8,3.3-2.5,5.2c-0.6,1.9-1.2,3.9-1.6,6l-2.1,9.7l21.2-4.3l1.6-7.3
		c0.3-1.1,0.5-2.3,0.7-3.4c0.2-1.1,0.3-2.3,0.3-3.4c0-1-0.1-2-0.4-2.9c-0.2-0.9-0.7-1.7-1.3-2.4c-0.6-0.7-1.4-1.2-2.5-1.6
		C263.1,47,261.8,46.8,260.3,46.8z"/>
	<path fill="#0F9FDB" d="M352.9,88.2L352.9,88.2l-1.1,5.2l-0.2,0.7c-1.4,6.3-3.1,11.7-5.2,16.2c-2.1,4.5-4.6,8.2-7.7,11.2
		c-3.1,2.9-6.6,5.1-10.7,6.5c-4.1,1.4-8.8,2.1-14.1,2.1c-4.3,0-7.8-0.5-10.8-1.4c-2.9-1-5.3-2.3-7-4c-1.8-1.7-3-3.9-3.8-6.3
		c-0.8-2.5-1.1-5.3-1.1-8.4c0-2.2,0.2-4.6,0.5-7c0.3-2.5,0.8-5,1.4-7.8l6.8-31.7c1.1-5.3,2.5-10.1,4-14.4c1.5-4.3,3.5-8,5.9-11
		c2.4-3,5.4-5.4,9-7c3.5-1.7,7.9-2.5,13.2-2.5c3.9,0,6.8,1.1,8.7,3.4c1.9,2.2,3,5.1,3.4,8.7L352.7,0H372L352.9,88.2z M318.7,111.3
		c2.2,0,4.1-0.6,5.6-1.8c1.6-1.2,2.9-2.7,4-4.5s1.9-3.8,2.6-5.9c0.7-2.1,1.2-4.1,1.7-6.1l6.1-28.1c0.3-1.4,0.5-2.9,0.7-4.4
		c0.2-1.5,0.3-3,0.3-4.4c0-1.3-0.1-2.5-0.3-3.7c-0.2-1.1-0.6-2.2-1.1-3c-0.5-0.9-1.2-1.6-2.1-2.1c-0.9-0.5-2-0.8-3.3-0.8
		c-2.3,0-4.2,0.5-5.7,1.4c-1.5,1-2.8,2.2-3.8,3.8c-1,1.6-1.9,3.3-2.5,5.2c-0.6,1.9-1.1,3.9-1.5,5.8l-7,32.5
		c-0.4,1.9-0.8,3.7-1.1,5.3c-0.3,1.6-0.4,3-0.4,4.3c0,2.1,0.6,3.7,1.7,4.7C313.6,110.8,315.7,111.3,318.7,111.3z"/>
	<path fill="#0F9FDB" d="M447.7,3.8L427.4,98c-1,4.8-2.4,9.2-4.1,13.1c-1.7,3.9-4,7.3-6.9,10.1c-2.9,2.8-6.4,4.9-10.6,6.5
		c-4.2,1.5-9.3,2.3-15.3,2.3c-4.6,0-8.5-0.4-11.7-1.3c-3.2-0.9-5.7-2.2-7.6-3.9c-1.9-1.7-3.3-3.8-4.2-6.2c-0.8-2.4-1.3-5.2-1.3-8.2
		c0-1.9,0.1-3.8,0.4-5.8c0.3-2,0.7-4.1,1.1-6.4l20.3-94.1h19.7l-20.3,94c-0.3,1.1-0.5,2.3-0.7,3.3c-0.2,1.1-0.2,2.1-0.2,3
		c0,2.1,0.6,3.7,1.8,4.9c1.2,1.2,3.4,1.8,6.7,1.8c2.3,0,4.3-0.3,5.8-1c1.5-0.7,2.8-1.6,3.7-2.7c1-1.2,1.7-2.5,2.2-4.1
		c0.5-1.6,1-3.3,1.5-5.2l20.2-94H447.7z"/>
	<g>
		<path fill="none" d="M484.5,46.8c-2.1,0-3.9,0.5-5.4,1.4c-1.5,0.9-2.8,2.2-3.8,3.7c-1,1.5-1.9,3.2-2.5,5.1
			c-0.7,1.9-1.2,3.8-1.7,5.7l-0.5,2.4L466,86.4l-1.8,8.1c-0.2,1.1-0.4,2.2-0.6,3.3c-0.3,1.6-0.4,3.2-0.4,4.7c0,1.2,0.1,2.3,0.3,3.4
			c0.2,1,0.6,1.9,1.2,2.7c0.6,0.8,1.3,1.4,2.3,1.8c1,0.4,2.1,0.7,3.6,0.7c2.3,0,4.2-0.4,5.7-1.3c1.5-0.9,2.7-2,3.7-3.5
			c1-1.5,1.8-3.2,2.4-5.1c0.6-1.9,1.1-3.9,1.6-6l7-32.4c0.3-1.5,0.6-2.9,0.9-4.4c0.2-1.4,0.4-2.8,0.4-4c0-2.2-0.5-4-1.6-5.4
			C489.4,47.5,487.4,46.8,484.5,46.8z"/>
		<path fill="#0F9FDB" d="M511.2,39.5c-0.6-2.3-1.7-4.4-3.1-6.1c-1.5-1.7-3.4-3-5.9-3.9c-2.5-0.9-5.5-1.4-9.2-1.4
			c-3.9,0-7.2,1-9.9,2.9c-2.7,1.9-5,4.5-6.9,7.8l2-8.9h-19.3l-27.7,128.2h19.3l8.5-39.4c0.5,3.4,1.7,6.1,3.6,8.1c1.9,2,4.8,3,8.8,3
			c5.2,0,9.6-0.9,13.2-2.8c3.6-1.9,6.6-4.4,9-7.6c2.5-3.2,4.4-6.9,5.9-11.2c1.5-4.3,2.8-8.8,3.8-13.5l6.9-31.7
			c0.6-2.9,1.1-5.7,1.5-8.3c0.4-2.6,0.6-5.2,0.6-7.6C512.2,44.4,511.9,41.9,511.2,39.5z M491.7,58.4c-0.2,1.4-0.5,2.9-0.9,4.4
			l-7,32.4c-0.5,2.1-1,4.1-1.6,6c-0.6,1.9-1.4,3.6-2.4,5.1c-1,1.5-2.2,2.6-3.7,3.5c-1.5,0.9-3.4,1.3-5.7,1.3c-1.4,0-2.6-0.2-3.6-0.7
			c-1-0.4-1.7-1-2.3-1.8c-0.6-0.8-1-1.7-1.2-2.7c-0.2-1-0.3-2.2-0.3-3.4c0-1.5,0.1-3.1,0.4-4.7c0.2-1.1,0.4-2.2,0.6-3.3l1.8-8.1
			l4.6-21.3l0.5-2.4c0.5-1.9,1.1-3.8,1.7-5.7c0.7-1.9,1.5-3.6,2.5-5.1c1-1.5,2.3-2.8,3.8-3.7c1.5-0.9,3.3-1.4,5.4-1.4
			c2.9,0,4.9,0.7,6,2.2c1.1,1.4,1.6,3.3,1.6,5.4C492.1,55.6,491.9,57,491.7,58.4z"/>
	</g>
	<path fill="#004A98" d="M596.6,96.3c-1.3,5.7-2.9,10.6-5,14.6c-2.1,4-4.7,7.3-7.7,9.9c-3.1,2.6-6.6,4.4-10.7,5.6
		c-4.1,1.2-8.7,1.8-13.8,1.8h-30.1L556.1,3.9h29.7c8.4,0,14.6,1.7,18.5,5.2c3.9,3.5,5.9,8.3,5.9,14.5c0,2.6-0.3,5.5-1,8.6l-1.6,7.3
		c-1.4,6.5-3.4,11.6-6,15.5c-2.6,3.8-6,6.3-10.3,7.5c2.8,0.8,5,2.5,6.6,4.9c1.6,2.5,2.3,5.6,2.3,9.4c0,2.2-0.3,4.6-0.9,7.4
		L596.6,96.3z M579.4,84.2c0.1-0.7,0.2-1.3,0.3-1.8c0.1-0.6,0.1-1.2,0.1-1.8c0-2.5-0.7-4.5-2-6c-1.4-1.6-3.5-2.3-6.5-2.3h-10.1
		l-8,36.9h10.2c1.7,0,3.3-0.2,4.7-0.5c1.4-0.4,2.7-1,3.8-2c1.1-1,2.1-2.2,2.9-3.8c0.8-1.6,1.5-3.7,2-6.2L579.4,84.2z M589,33.8
		c0.3-1.5,0.5-2.9,0.5-4.2c0-2.3-0.6-4.2-1.8-5.6c-1.2-1.4-3.3-2-6.3-2h-9.5l-7,32.2h8c2.2,0,4.1-0.3,5.7-0.8c1.6-0.5,3-1.3,4.2-2.4
		c1.1-1.1,2.1-2.4,2.9-4c0.8-1.6,1.4-3.5,1.8-5.8L589,33.8z"/>
	<path fill="#004A98" d="M622.7,37.1c1-4.7,2.4-9.2,4.2-13.5c1.8-4.3,4.1-8,7.1-11.1c2.9-3.2,6.6-5.7,10.9-7.5
		c4.3-1.9,9.5-2.8,15.6-2.8c4.6,0,8.5,0.5,11.6,1.6c3.1,1.1,5.6,2.6,7.5,4.5c1.9,1.9,3.2,4.2,4,6.9c0.8,2.7,1.2,5.6,1.2,8.7
		c0,2.1-0.2,4.2-0.4,6.4c-0.3,2.2-0.7,4.5-1.2,6.8L670.6,95c-1,4.7-2.4,9.2-4.2,13.5c-1.7,4.3-4.1,8-7,11.1s-6.6,5.7-10.8,7.5
		c-4.3,1.9-9.5,2.8-15.6,2.8c-4.6,0-8.5-0.5-11.6-1.6c-3.1-1.1-5.6-2.6-7.5-4.5c-1.9-1.9-3.2-4.2-4-6.9c-0.8-2.6-1.2-5.5-1.2-8.7
		c0-2.1,0.1-4.2,0.4-6.4c0.3-2.2,0.7-4.5,1.1-6.7L622.7,37.1z M656.4,21.2c-2.3,0-4.2,0.4-5.8,1.3c-1.6,0.9-2.9,2.1-3.9,3.6
		c-1.1,1.5-1.9,3.2-2.5,5.1c-0.6,1.9-1.2,3.9-1.6,5.9L630,94.9c-0.3,1.4-0.5,2.7-0.7,4c-0.2,1.3-0.3,2.6-0.3,3.8
		c0,2.3,0.6,4.2,1.7,5.8c1.1,1.6,3.2,2.3,6.3,2.3c2.3,0,4.3-0.4,5.8-1.3c1.6-0.9,2.9-2,3.9-3.5c1.1-1.5,1.9-3.2,2.5-5.1
		c0.6-1.9,1.2-3.9,1.6-6l12.4-57.7c0.3-1.4,0.5-2.7,0.7-4c0.2-1.3,0.3-2.6,0.3-3.8c0-1.1-0.1-2.2-0.4-3.2c-0.2-1-0.7-1.8-1.3-2.6
		c-0.6-0.7-1.4-1.3-2.5-1.7C659.3,21.4,658,21.2,656.4,21.2z"/>
	<polygon fill="#0F9FDB" points="674.8,128.3 667.1,128.3 704.1,63.9 695.6,3.9 703.2,3.9 711.7,63.9 	"/>
	<g>
		<polygon fill="#004A98" points="784.5,3.9 762.9,3.9 735.9,48 737.8,63.9 730.7,76.7 737.3,128.3 759.3,128.3 749.4,63.9 		"/>
		<polygon fill="#0F9FDB" points="735.9,48 730.6,3.9 708.9,3.9 709,4.6 717.4,63.9 680.1,128.3 702,128.3 730.7,76.7 737.8,63.9 		
			"/>
	</g>
	<path fill="#0F9FDB" d="M207.4,95l-0.3,1.9c-0.9,4.5-2.2,8.8-3.8,12.8c-1.6,4-3.8,7.5-6.5,10.5c-2.8,3-6.2,5.3-10.4,7.1
		c-4.2,1.7-9.3,2.6-15.4,2.6c-4.5,0-8.3-0.5-11.4-1.6c-3.1-1-5.5-2.5-7.3-4.4c-1.8-1.9-3.1-4.1-3.9-6.7c-0.8-2.6-1.1-5.4-1.1-8.5
		c0-2.1,0.1-4.4,0.4-6.7c0.3-2.3,0.7-4.7,1.3-7.2l6.9-31.7c1-4.7,2.4-9.2,4.1-13.5c1.7-4.3,3.9-8,6.7-11.2c2.8-3.2,6.3-5.7,10.6-7.6
		c4.2-1.9,9.4-2.8,15.5-2.8c4.5,0,8.3,0.5,11.3,1.5c3,1,5.5,2.4,7.3,4.2c1.8,1.8,3.1,3.9,3.9,6.4c0.8,2.5,1.1,5.2,1.1,8.1
		c0,2-0.2,4.1-0.4,6.3c-0.3,2.2-0.7,4.4-1.2,6.7l-3.2,15h-0.1l-1.1,5.6l-41,7.5l-1.2,5.7c-0.3,1.4-0.6,2.8-0.8,4.2
		c-0.2,1.4-0.3,2.7-0.3,4c0,1.1,0.1,2.1,0.4,3.1c0.2,1,0.7,1.8,1.3,2.5c0.6,0.7,1.4,1.3,2.4,1.6c1,0.4,2.2,0.6,3.8,0.6
		c2.3,0,4.2-0.4,5.7-1.2c1.5-0.8,2.7-1.8,3.7-3.1c1-1.3,1.7-2.8,2.3-4.5c0.5-1.7,0.6-1.8,1-3.5L207.4,95z M188.7,46.8
		c-2.3,0-4.2,0.4-5.8,1.3c-1.6,0.9-2.8,2.1-3.8,3.6c-1,1.5-1.8,3.3-2.5,5.2c-0.6,1.9-1.2,3.9-1.6,6l-2.1,9.7l21.2-4.3l1.6-7.3
		c0.3-1.1,0.5-2.3,0.7-3.4c0.2-1.1,0.3-2.3,0.3-3.4c0-1-0.1-2-0.4-2.9c-0.2-0.9-0.7-1.7-1.3-2.4c-0.6-0.7-1.4-1.2-2.5-1.6
		C191.5,47,190.2,46.8,188.7,46.8z"/>
</g>
</svg>
